<?xml version="1.0" encoding="UTF-8"?><svg id="Ebene_1" xmlns="http://www.w3.org/2000/svg" viewBox="0 0 14 18"><defs><style>.cls-1{fill:#fff;}</style></defs><polygon class="cls-1" points="4.42 5.87 4.46 18 .48 15.68 .49 8.02 4.42 5.87"/><path class="cls-1" d="M9.45,7.11l.2-6.6c1.96.62,3.37,2.63,3.77,4.61l-3.97,1.99Z"/><path class="cls-1" d="M6.35,4L.45,7.33c-.05-1.57.23-3.02,1.07-4.35.2-.32.91-1.21,1.18-1.34l3.66,2.36Z"/><path class="cls-1" d="M11.56,11.29s-.08.08-.12.11l-4.06-2.27,6.17-3.31v.76c.02.39,0,.77-.07,1.16-.24,1.35-.92,2.6-1.92,3.54"/><path class="cls-1" d="M9.04.25l-.17,4.67L3.13,1.27C4.81-.06,7.01-.24,9.04.25"/><path class="cls-1" d="M5.03,8.45l5.93,3.49c-1.69,1.14-3.94,1.54-5.9.88l-.03-4.36Z"/></svg>